<svg width="96" height="21" viewBox="0 0 96 21" fill="none" xmlns="http://www.w3.org/2000/svg">
<path d="M0.987109 20V19.72L1.54711 19.524C2.18178 19.3187 2.49911 18.7867 2.49911 17.928V3.592C2.49911 3.21867 2.45244 2.92 2.35911 2.696C2.28444 2.472 2.06978 2.28533 1.71511 2.136L0.987109 1.8V1.52H6.39111L11.5711 15.072L16.4431 1.52H21.9591V1.8L21.5111 1.968C21.1564 2.09867 20.9138 2.28533 20.7831 2.528C20.6524 2.752 20.5871 3.05067 20.5871 3.424V18.068C20.5871 18.4413 20.6338 18.7307 20.7271 18.936C20.8204 19.1413 21.0444 19.3187 21.3991 19.468L21.9591 19.72V20H14.9871V19.72L15.5751 19.468C15.9298 19.3187 16.1538 19.1413 16.2471 18.936C16.3404 18.7307 16.3871 18.4413 16.3871 18.068V11.768L16.4431 3.76L10.5911 20H9.19111L3.08711 3.956L3.17111 10.928V17.984C3.17111 18.3947 3.22711 18.7307 3.33911 18.992C3.46978 19.2347 3.71244 19.412 4.06711 19.524L4.68311 19.72V20H0.987109ZM29.4813 20.42C28.0626 20.42 26.8306 20.1307 25.7853 19.552C24.7399 18.9547 23.9279 18.1147 23.3493 17.032C22.7893 15.9493 22.5093 14.68 22.5093 13.224C22.5093 11.768 22.8079 10.508 23.4053 9.444C24.0213 8.38 24.8519 7.55867 25.8973 6.98C26.9613 6.40133 28.1559 6.112 29.4813 6.112C30.8066 6.112 31.9919 6.40133 33.0373 6.98C34.0826 7.54 34.9039 8.352 35.5013 9.416C36.1173 10.48 36.4253 11.7493 36.4253 13.224C36.4253 14.6987 36.1359 15.9773 35.5573 17.06C34.9973 18.124 34.1946 18.9547 33.1493 19.552C32.1226 20.1307 30.8999 20.42 29.4813 20.42ZM29.4813 19.86C30.1346 19.86 30.6573 19.6733 31.0493 19.3C31.4413 18.9267 31.7213 18.264 31.8893 17.312C32.0759 16.36 32.1693 15.016 32.1693 13.28C32.1693 11.5253 32.0759 10.172 31.8893 9.22C31.7213 8.268 31.4413 7.60533 31.0493 7.232C30.6573 6.85867 30.1346 6.672 29.4813 6.672C28.8279 6.672 28.2959 6.85867 27.8853 7.232C27.4933 7.60533 27.2039 8.268 27.0173 9.22C26.8493 10.172 26.7653 11.5253 26.7653 13.28C26.7653 15.016 26.8493 16.36 27.0173 17.312C27.2039 18.264 27.4933 18.9267 27.8853 19.3C28.2959 19.6733 28.8279 19.86 29.4813 19.86ZM37.6551 20V19.72L38.0471 19.608C38.7004 19.4213 39.0271 18.964 39.0271 18.236V9.472C39.0271 9.06133 38.9617 8.76267 38.8311 8.576C38.7004 8.37067 38.4484 8.23067 38.0751 8.156L37.6551 8.044V7.764L42.4431 6.14L42.7231 6.42L42.9471 8.1C43.6004 7.52133 44.3377 7.04533 45.1591 6.672C45.9804 6.29867 46.7924 6.112 47.5951 6.112C48.8271 6.112 49.7697 6.448 50.4231 7.12C51.0951 7.792 51.4311 8.81867 51.4311 10.2V18.264C51.4311 18.992 51.7857 19.4493 52.4951 19.636L52.7471" fill="#FEF5E4"/>
</svg>